<svg width="180" height="178" viewBox="0 0 180 178" fill="none" xmlns="http://www.w3.org/2000/svg">
<path d="M80.5233 62.52C86.989 66.3388 93.7006 71.3581 100.093 77.8935C113.126 91.3247 119.199 105.604 122.063 113.983C118.424 113.029 113.409 111.509 107.578 109.071C98.6789 105.289 87.9069 99.3147 77.524 89.8046C61.6999 75.3859 54.0337 59.6232 50.5386 50.8916C56.4347 52.129 67.9484 55.0996 80.5233 62.52Z" fill="#F9B53F"/>
<path d="M175.571 112.57C176.099 110.73 175.042 108.788 173.206 108.222L158.972 104.051C157.132 103.519 155.19 104.58 154.625 106.42C154.096 108.255 155.157 110.201 156.993 110.767L171.227 114.938C171.543 115.041 171.899 115.077 172.215 115.077C173.735 115.077 175.112 114.09 175.571 112.57ZM147.458 27.3521L154.133 9.89305C154.805 8.0902 153.92 6.07428 152.117 5.4023C150.318 4.69755 148.302 5.61537 147.635 7.41823L140.956 24.8772C140.288 26.6801 141.169 28.696 142.972 29.368C143.394 29.5073 143.82 29.6138 144.205 29.6138C145.586 29.6138 146.926 28.7657 147.458 27.3521ZM69.5751 23.7136C71.2017 22.6851 71.6606 20.493 70.6363 18.9032L63.1135 7.20516C62.0891 5.57849 59.897 5.11958 58.3072 6.14803C56.6846 7.17238 56.2257 9.36039 57.2501 10.9502L64.7729 22.6524C65.4408 23.6767 66.5717 24.2421 67.7026 24.2421C68.3377 24.2749 68.9727 24.0987 69.5751 23.7136ZM90.6603 100.019C89.9883 100.019 89.3204 99.8433 88.7181 99.4212C87.1283 98.36 86.7063 96.1679 87.7634 94.5781C90.4144 90.62 96.0648 83.6217 103.87 81.3599C113.126 78.7089 121.78 81.2165 130.151 83.6217C132.409 84.2568 134.531 84.8919 136.682 85.3876C141.382 86.5185 146.328 87.4036 150.388 86.0965C154.805 84.6829 158.583 80.9338 161.689 77.4346C162.963 75.9882 165.188 75.8817 166.601 77.1519C168.048 78.4262 168.154 80.651 166.884 82.0646C163.139 86.2727 158.513 90.8331 152.506 92.7384C146.819 94.5412 140.747 93.5169 135.06 92.1402C132.765 91.5747 130.467 90.9355 128.242 90.2635C120.473 88.0387 113.159 85.9162 105.812 88.0018C101.645 89.2064 97.1956 92.9883 93.5571 98.3928C92.8852 99.454 91.7912 100.019 90.6603 100.019Z" fill="#F14947"/>
<path d="M141.206 130.488C143.078 130.066 144.279 128.189 143.853 126.317L141.91 117.728C141.488 115.856 139.616 114.688 137.743 115.077C135.871 115.504 134.67 117.376 135.092 119.249L137.039 127.837C137.391 129.463 138.837 130.557 140.427 130.557C140.673 130.594 140.956 130.557 141.206 130.488ZM178.644 68.7071C179.881 67.2198 179.705 65.0318 178.222 63.7943C175.853 61.7784 171.862 59.2339 166.319 58.3858C159.996 57.3942 154.838 59.1971 152.33 60.3648C150.601 61.1761 149.823 63.2617 150.634 64.9949C151.449 66.7281 153.531 67.5025 155.264 66.6912C157.063 65.843 160.738 64.5688 165.257 65.2776C169.179 65.8799 172.039 67.7156 173.735 69.166C174.37 69.7315 175.181 69.9773 175.96 69.9773C176.984 69.9773 177.972 69.5553 178.644 68.7071ZM77.5239 93.3038C76.4627 93.3038 75.4383 92.8449 74.7664 91.964C73.6027 90.4438 73.8854 88.2517 75.4015 87.084C82.3261 81.7123 86.7062 75.7751 88.3288 69.4119C90.2709 61.8481 88.1894 55.1324 85.9646 48.0276C83.5635 40.2876 80.8059 31.5232 83.5635 21.1691C85.2229 14.8386 88.6115 8.97525 93.5939 3.74287C94.9338 2.36205 97.1259 2.29239 98.5026 3.63634C99.8793 4.98029 99.949 7.17239 98.6091 8.54912C94.4421 12.9333 91.6149 17.7765 90.2709 22.9351C88.046 31.347 90.2709 38.4519 92.6023 45.942C95.0075 53.6861 97.5151 61.6719 95.0772 71.1451C93.0285 79.0613 87.8371 86.2727 79.6423 92.5991C79.0072 93.0948 78.2655 93.3038 77.5239 93.3038Z" fill="#446DB7"/>
<path d="M53.9271 40.7832C54.3532 38.9107 53.1854 37.0382 51.3129 36.6121L40.4343 34.1372C38.5618 33.7152 36.6934 34.8789 36.2673 36.7555C35.8452 38.628 37.0089 40.5005 38.8814 40.9266L49.76 43.3974C50.0058 43.4711 50.2886 43.4711 50.5385 43.4711C52.1283 43.4711 53.5747 42.373 53.9271 40.7832ZM77.524 89.8414C72.9677 85.7071 69.1161 81.4663 65.83 77.3279C63.0765 73.8287 60.7083 70.4033 58.7333 67.1869C54.8121 60.7867 52.198 55.0626 50.5385 50.9611L32.5591 96.6635L28.0397 108.149L0.984558 177.071L12.6007 171.027L22.5287 165.869L72.5784 139.785L83.5267 134.093L122.063 114.016C112.807 111.578 94.7249 105.498 77.524 89.8414ZM115.773 29.6137C114.679 29.6137 113.585 29.0851 112.913 28.0936C111.819 26.5038 112.208 24.3485 113.794 23.2545C115.282 22.2302 118.846 19.2965 119.907 14.1337C120.719 10.1756 119.625 6.88953 118.883 5.26286C118.105 3.49688 118.883 1.44408 120.649 0.669676C122.415 -0.10883 124.464 0.669676 125.238 2.43565C126.299 4.80395 127.926 9.67986 126.721 15.5473C125.169 23.1808 119.94 27.4953 117.752 29.0155C117.15 29.4006 116.445 29.6137 115.773 29.6137Z" fill="#3BA27A"/>
<path d="M77.524 129.639C74.0617 129.639 71.2345 132.43 71.2345 135.929C71.2345 137.379 71.7303 138.723 72.5416 139.785L83.4898 134.093C82.7154 131.512 80.3143 129.639 77.524 129.639ZM32.5591 96.6636L28.0397 108.149C28.9944 108.751 30.0884 109.07 31.289 109.07C34.7513 109.07 37.5744 106.276 37.5744 102.777C37.5744 99.7735 35.4191 97.229 32.5591 96.6636ZM96.1016 109.812C92.6393 109.812 89.8121 112.639 89.8121 116.102C89.8121 119.568 92.6024 122.395 96.1016 122.395C99.5639 122.395 102.387 119.601 102.387 116.102C102.387 112.639 99.5967 109.812 96.1016 109.812ZM45.0972 123.383C41.6349 123.383 38.8118 126.177 38.8118 129.676C38.8118 133.139 41.6021 135.966 45.0972 135.966C48.5964 135.966 51.3867 133.175 51.3867 129.676C51.3867 126.177 48.5595 123.383 45.0972 123.383ZM16.2392 159.649C12.781 159.649 9.9538 162.439 9.9538 165.938C9.9538 168.061 10.9781 169.896 12.5679 171.064L22.5287 165.869C22.4918 162.402 19.7015 159.649 16.2392 159.649ZM58.7333 67.15C56.6846 68.1744 55.271 70.2968 55.271 72.7716C55.271 76.2339 58.0614 79.0611 61.5564 79.0611C63.2159 79.0611 64.7729 78.3892 65.8669 77.3279C63.0766 73.8288 60.7083 70.4033 58.7333 67.15ZM162.504 39.3C157.804 37.4602 148.233 34.8789 137.108 37.9192C122.804 41.8445 115.314 52.4117 112.77 56.7959C111.782 58.4553 112.348 60.5778 114.007 61.5652C114.573 61.8848 115.175 62.061 115.773 62.061C116.974 62.061 118.142 61.4259 118.777 60.3278C120.895 56.6893 127.111 47.925 138.944 44.6717C148.126 42.1272 156.075 44.3193 159.96 45.8026C161.762 46.5114 163.774 45.5895 164.479 43.8235C165.188 42.0575 164.303 40.0047 162.504 39.3Z" fill="#F9B53F"/>
<path d="M140.816 127.906C141.062 127.837 141.206 127.624 141.132 127.378L138.981 118.187C138.907 117.941 138.698 117.798 138.448 117.872C138.202 117.941 138.063 118.154 138.133 118.4L140.288 127.591C140.321 127.8 140.497 127.943 140.71 127.943C140.747 127.906 140.78 127.906 140.816 127.906ZM68.0221 21.378C68.2311 21.2387 68.3048 20.9928 68.1614 20.7798L60.5321 8.65557C60.3927 8.44251 60.1428 8.40973 59.9338 8.51626C59.7208 8.65557 59.6511 8.90141 59.7904 9.11448L67.4198 21.2387C67.4894 21.378 67.6329 21.4517 67.7722 21.4517C67.8787 21.4149 67.9484 21.4149 68.0221 21.378ZM115.314 58.316C117.539 54.6735 124.038 45.8026 136.191 41.9142C147.95 38.0995 158.194 41.2422 162.045 42.7295C162.254 42.7992 162.504 42.6927 162.611 42.4796C162.713 42.2665 162.574 41.9838 162.361 41.9142C157.489 40.0048 147.528 37.321 135.941 41.066C123.546 45.061 116.867 54.1449 114.573 57.853C114.433 58.0661 114.503 58.316 114.716 58.4554C114.786 58.4922 114.855 58.525 114.925 58.525C115.068 58.525 115.208 58.4554 115.314 58.316ZM80.4167 92.3859C80.5602 92.2097 80.5602 91.927 80.384 91.7877C73.8117 86.0964 67.9156 79.6266 62.9004 72.5586C59.1922 67.3631 55.943 61.7783 53.2223 55.9805C53.1158 55.7716 52.8699 55.665 52.6569 55.7716C52.4438 55.874 52.3373 56.1239 52.4438 56.337C55.2013 62.1676 58.4506 67.7851 62.1915 73.0544C67.2436 80.1921 73.1766 86.7315 79.8185 92.4228C79.8882 92.4924 79.9947 92.5293 80.1012 92.5293C80.2078 92.5293 80.3471 92.4924 80.4167 92.3859ZM91.3322 120.203C91.5453 120.06 91.5781 119.777 91.4387 119.601C89.5662 116.987 90.0948 113.311 92.6393 111.439C93.8767 110.517 95.4993 110.128 97.0891 110.41C98.7157 110.693 100.125 111.615 101.047 112.992C101.186 113.205 101.432 113.242 101.645 113.098C101.858 112.959 101.891 112.709 101.752 112.496C100.691 110.906 99.1009 109.882 97.2325 109.562C95.4296 109.247 93.5571 109.669 92.1107 110.73C89.2139 112.885 88.5788 117.093 90.7299 120.097C90.8036 120.203 90.943 120.273 91.0864 120.273C91.156 120.273 91.2626 120.236 91.3322 120.203ZM10.4823 168.413C10.6954 168.343 10.8388 168.094 10.765 167.848C9.92099 165.229 10.9085 162.369 13.1702 160.956C15.2189 159.682 17.9027 159.825 19.8449 161.308C20.0211 161.448 20.3038 161.415 20.4472 161.239C20.5865 161.062 20.5496 160.78 20.3735 160.636C18.1158 158.94 15.0427 158.764 12.7113 160.247C10.0972 161.874 8.96629 165.127 9.95376 168.163C10.0275 168.343 10.2037 168.483 10.3799 168.483C10.3799 168.413 10.4127 168.413 10.4823 168.413ZM45.0972 136.355C44.8513 136.355 44.6751 136.142 44.6751 135.929C44.6751 135.683 44.8882 135.507 45.0972 135.507C48.3136 135.507 50.9278 132.893 50.9278 129.676C50.9278 126.46 48.3136 123.842 45.0972 123.842C44.8513 123.842 44.6751 123.633 44.6751 123.42C44.6751 123.207 44.8882 122.993 45.0972 122.993C48.8094 122.993 51.8087 126.001 51.8087 129.709C51.8087 133.352 48.8094 136.355 45.0972 136.355Z" fill="#3A5471"/>
</svg>
